P1
# MD380 address: 0x807cb90
# MD380 checksum: 1011126616
16 16
0010000000100000
0001000000100000
0001001111111110
1111110000100000
0000000000100000
0000100111111100
1000100100100100
1000100100100100
0100100111111100
0100100000100000
0101000001110000
0101000010101000
0001110100100100
1110001000100010
0100000000100000
0000000000100000
