P1
# MD380 address: 0x80693e0
# MD380 checksum: 34718805
12 12
010001000100
011100101000
100101111110
111110001000
101010001000
111110111110
101010001000
111111111110
000000001000
001110001000
110000001000
000000000000
