P1
# MD380 address: 0x8072650
# MD380 checksum: -185223150
16 16
0000000000100000
0111111000100000
0000001000100000
0000010000111110
1111111101000100
0010001001000100
0010001001000100
0011111010100100
0010001000101000
0011111000101000
0010001000010000
0010001000010000
0010111100101000
1111001000101000
0100001001000100
0000001010000010
