P1
# MD380 address: 0x80687b8
# MD380 checksum: -4185655
12 12
000011000000
111100001000
000100001000
111111010000
000100010000
001110010000
010101100100
100100100100
000101000010
000101111110
000100000000
000000000000
