P1
# MD380 address: 0x8072f60
# MD380 checksum: 960361110
16 16
0001000000010000
1111111011111110
0001000000010000
0111110001111100
0001000000010000
1111111011111110
0001000000010000
0011111111111000
0000000000001000
0001111111111000
0000000000001000
0011111111111000
0000000100000000
0100100010000100
0100100000010010
1000011111110010
