P1
# MD380 address: 0x8065398
# MD380 checksum: -1473441237
12 12
011111111000
000001000000
111111111110
000001000000
000101010000
111101010110
000101011000
001101010010
110101011110
000001000000
000001000000
000000000000
