P1
# MD380 address: 0x8078de8
# MD380 checksum: -341013043
16 16
0010000000000000
0010001111011110
0010001001010010
0010001001010010
0010001001010010
1111101111011110
0010001001010010
0010001001010010
0010001001010010
0010001111011110
0010001001010010
0011101001010010
1110001001010010
0100001001010010
0000010101010010
0000100010100110
