P1
# MD380 address: 0x807dc10
# MD380 checksum: 572186482
16 16
0010000000000000
0010000001000000
0111110110011100
0100010100000100
1000100100000100
0111110111011100
0101010100000100
0101010100000100
0111110111111100
0101010001010000
0101010001010000
0111110001010000
0000000010010000
0001110010010010
1110000100010010
0100001000001110
