P1
# MD380 address: 0x8071cb0
# MD380 checksum: 754965529
16 16
0000000000011110
0111110111100000
0100010000100010
0100010100010010
0100010010010100
0111110010000000
0001000000100000
0001000111001110
0001000100000010
0101110100000010
0101000111001110
0101000100000010
0101000100000010
0101110100000010
1110000111111110
0000000100000010
