P1
# MD380 address: 0x8072dc0
# MD380 checksum: -2137795380
16 16
0000001000000000
0000000100000000
0000000100000000
0001111111111000
0001000000001000
0001000000001000
0001000000001000
0001000000001000
0001111111111000
0001000000001000
0001000000000000
0001000000000000
0001000000000000
0010000000000000
0010000000000000
0100000000000000
