P1
# MD380 address: 0x8078880
# MD380 checksum: -1332470714
16 16
0000000000100000
0010000000100000
0001000000100000
0001000000100000
0000001111111110
0000000000100000
1111000000100000
0001000000100000
0001000111111100
0001000100000100
0001000100000100
0001000100000100
0001010100000100
0001100100000100
0001000111111100
0000000100000100
