P1
# MD380 address: 0x8069490
# MD380 checksum: 836303906
12 12
001000000000
001000111110
001000100010
111110100010
001000111110
011100100010
011010111110
101000100010
101000100010
001000111110
001000100010
000000000000
