P1
# MD380 address: 0x80742e0
# MD380 checksum: 1086638016
16 16
0000000100000000
0000000010000000
0011111111111110
0010001000100000
0010001000100000
0011111111111100
0010001000100100
0010001000100100
0011111111111100
0010100001000000
0010100001000100
0010111101011000
0100100001100000
0100100001000100
1000101101000100
0000110000111100
