P1
# MD380 address: 0x8069498
# MD380 checksum: -1416865380
12 12
011111111110
010000000000
010010111100
011111100100
010010111100
010010100100
010111100100
011010111100
010010100100
100010111100
100010100100
000000000000
