P1
# MD380 address: 0x8073618
# MD380 checksum: -2129071476
16 16
0000100000000000
0000101111111100
0000100100000100
0001000100000100
0001000100000100
0011000010001000
0011000010001000
0101000010001000
1001000001010000
0001000001010000
0001000000100000
0001000000100000
0001000001010000
0001000010001000
0001000100000100
0001011000000010
