P1
# MD380 address: 0x807c038
# MD380 checksum: 252094157
16 16
0000000000100000
0000000000100000
1111110000100000
0001000111111100
0001000000100000
0010000000100000
0011110000100000
0110010111111110
0110010000100000
1010010000100000
0010010001000000
0010010001001000
0011110010000100
0010010111111110
0010000010000010
0000000000000000
