P1
# MD380 address: 0x80634b8
# MD380 checksum: -690396192
6 12
000000
000000
011100
100100
100000
111100
100010
100010
100010
011100
000000
000000
