P1
# MD380 address: 0x8064460
# MD380 checksum: -1295452622
12 12
000000100000
001111111110
101001010000
011001010000
001001010010
011001110100
101101011000
001101010000
010101110010
010111010010
100100011110
000000000000
