P1
# MD380 address: 0x806e3e0
# MD380 checksum: -360785693
12 12
001100010000
110000100100
010001111110
011100000010
110001010000
010001111100
011110010000
110011111110
010000010000
010000010010
011111111110
000000000000
