P1
# MD380 address: 0x807dbd0
# MD380 checksum: -1355874834
16 16
0100000000000000
0100001111011110
0111101001010010
1000101001010010
0001001001010010
1111101111010010
1010101001010010
1010101001010010
1111101001010010
1010101111010010
1010101000011010
1111101010010100
0000001001010000
0001101010110000
1110001100010000
0100000000010000
