P1
# MD380 address: 0x806d2c8
# MD380 checksum: 672854091
12 12
100111011110
010101001000
000111001000
100101011110
010010010010
011111111010
100101011010
100111011010
101010001000
110011010100
100110100010
000000000000
