P1
# MD380 address: 0x8071688
# MD380 checksum: -90793146
16 16
0000100000000000
0000100000111110
1111111110100010
0000100000100010
0111111100100010
0100000100111110
0111111100100010
0100000100100010
0111111100100010
0100100100111110
0000100000100010
1111111110100010
0000100001000010
0000100001000010
0000100010001010
0000100100000100
