P1
# MD380 address: 0x8066618
# MD380 checksum: 1721075931
12 12
100100000100
010111111110
001000010000
011000010000
100100010000
001101111110
010100010000
100100010000
000100010000
000100010000
011011111110
000000000000
