P1
# MD380 address: 0x8074928
# MD380 checksum: -602390730
16 16
0001000000100000
0001000000100000
0011110000100000
0010000111111110
0100000100100010
1011110100100010
0001000100100010
0001000100100010
1111110101010010
0001000101001010
0001000110001010
0001000100000010
0001010100000010
0001100100000010
0001000100001010
0000000100000100
