P1
# MD380 address: 0x8079940
# MD380 checksum: -700718155
16 16
0000000000100000
0000000000100000
0111101111111110
0100100000100000
0100100111111100
0100100000100000
0100101111111110
0100100000000000
0100100111111100
0100100100000100
0111100100100100
0100100100100100
0000000100100100
0000000001010000
0000000010001000
0000001100000100
