P1
# MD380 address: 0x807c6e0
# MD380 checksum: 580755919
16 16
0001000000000000
0001001111111110
0011110001010000
0010000111111100
0100000101010100
1011110101010100
0001000111111100
0001000000000000
1111110111111100
0001000000000000
0001001111111110
0001000000100000
0001010010101000
0001100100100100
0001001010100010
0000000001000000
