P1
# MD380 address: 0x8069dd8
# MD380 checksum: -1550566088
12 12
010011111100
010001000100
100100101000
111000011000
001001100110
010110010000
111001111100
000000010000
001011111110
110000010000
000000010000
000000000000
