P1
# MD380 address: 0x8071b70
# MD380 checksum: 1645282449
16 16
0010000100010000
0010000100010000
0010011111111100
0010000100010000
1111100001000000
0010000010100000
0010000100010000
0010101000001000
0011010111110110
1110000000000000
0010000000000000
0010001111111000
0010001000001000
0010001000001000
1010001111111000
0100001000001000
