P1
# MD380 address: 0x8067d50
# MD380 checksum: -1706640510
12 12
010000000000
011111111100
100000000000
111111111000
000100001000
111111101000
000100001000
111111101000
010001001010
011111001010
010001000110
000000000000
