P1
# MD380 address: 0x80740d0
# MD380 checksum: -1346041155
16 16
0000000100010000
0000000100010000
1111100100010000
0010000100010000
0010011110111100
0010000100010000
0010000100010000
1111101100111000
0010001110111000
0010010101010100
0010010101010100
0011100110010010
1110000100010000
0100000100010000
0000000100010000
0000000100010000
