P1
# MD380 address: 0x80679a8
# MD380 checksum: -574837374
12 12
000100010000
111111111110
100100010100
010111111110
000000010000
101011111100
011010010100
010011111100
110010010100
010011111100
010010010100
000000000000
