P1
# MD380 address: 0x8070250
# MD380 checksum: 2094934096
12 12
111101001000
100101001010
100101101100
111101001000
001001011010
101001101110
101100010000
101011111110
101000010000
111100010000
100000010000
000000000000
