P1
# MD380 address: 0x8070e48
# MD380 checksum: 2005007370
16 16
0001001000010000
0001001000010000
0001111111010000
0010001000100000
0010111110111110
0110001001000100
1011111110100100
0010010000100100
0010010000100100
0010011110101000
0010010010101000
0010010010010000
0010010010101000
0010100110101000
0010100001000100
0011000010000010
