P1
# MD380 address: 0x8070888
# MD380 checksum: 967777
12 12
011111000100
010000111000
011110000100
111111001010
001010111100
011111000000
000100010100
010111011000
010100010010
010111010010
111000011110
000000000000
