P1
# MD380 address: 0x807d7e8
# MD380 checksum: -1366501974
16 16
0000000000010000
0111110000010000
0100010000010000
0100010111111110
0100010100010010
0111110100010100
0001000100010000
0001000111111100
0101110101000100
0101000101000100
0101000100101000
0101000100101000
0101110100010000
1110001000101000
0000001001000100
0000010010000010
