P1
# MD380 address: 0x806e988
# MD380 checksum: 1163781171
12 12
000001000000
000001000000
000001111100
000001000000
000001000000
111111111110
000001000000
010100100100
010100101010
100100001010
000111111000
000000000000
