P1
# MD380 address: 0x807a5a8
# MD380 checksum: 1965768238
16 16
0000000001000000
0100000001000000
0010111111111110
0010000001000000
0000000001000000
1000011111111100
0100010001000100
0101010001000100
0001011111111100
0010000001000000
1110000011100000
0010000101010000
0010001001001000
0010110001000110
0010000001000000
0000000001000000
