P1
# MD380 address: 0x806d2f0
# MD380 checksum: 1949909507
12 12
000001000000
111111111110
100010000010
011111111100
000100000000
001111111000
010100001000
100111111000
000100001000
000111111000
000100001000
000000000000
