P1
# MD380 address: 0x8078708
# MD380 checksum: 1879567983
16 16
0001010000010100
0001001000010010
0001111110010010
0010000000010000
0010000001111110
0110111110010000
0110100010010000
1010100010010000
0010111110010000
0010001000101000
0010101100101000
0010101010101000
0011001000101000
0010001001001010
0010101001001010
0010010010000110
