P1
# MD380 address: 0x8065f08
# MD380 checksum: 378925436
12 12
010101000010
101010001010
010101001010
011111001010
010101001010
011111001010
010101001010
111111101010
001110001010
010101000010
100100100110
000000000000
