P1
# MD380 address: 0x8077438
# MD380 checksum: -247121220
16 16
0000000100000000
0000000010000000
0011111111111110
0010000000000000
0010000000000000
0010000100000100
0010100010000100
0010010010000100
0010010001001000
0010001001001000
0010001000010000
0010001000010000
0100000000100000
0100000001000000
1001111111111110
0000000000000000
