P1
# MD380 address: 0x80714a8
# MD380 checksum: -1314948970
16 16
0010000100000000
0010000100000010
0010000100011100
0010111111010000
0011001000010000
1010101000010000
1010010100011110
1010011111010100
1010000100010100
0010000100010100
0010000111010100
0010111100010100
0010010100010100
0010000100100100
0010000100100100
0010000101000100
