P1
# MD380 address: 0x8067830
# MD380 checksum: -680991147
12 12
011100010000
010101111110
010101010010
011101111110
010101010010
010101111110
011100100000
010101010000
010111111110
100100010000
101100010000
000000000000
