P1
# MD380 address: 0x806d740
# MD380 checksum: -2019172309
12 12
001001111100
111110100100
010010101000
001100011000
110010100110
011111110000
001000010000
001111111100
000000000100
111111110100
000000011000
000000000000
