P1
# MD380 address: 0x806d5c8
# MD380 checksum: 871773063
12 12
001000010000
100101010100
010001010010
001010010100
110000011000
010111100000
000010000000
111111111110
000100010000
000011100000
111100011100
000000000000
