P1
# MD380 address: 0x806f1f8
# MD380 checksum: 2146613187
12 12
010000101000
010000101000
011101111110
101011001000
001001111110
111111001000
001001001000
001001111110
010101001000
010011001000
100001111110
000000000000
