P1
# MD380 address: 0x80766b0
# MD380 checksum: 758475198
16 16
0000000010010000
0000000010001000
0111100100000100
0100101001000010
0100110010001000
0100100111111100
0100100000000100
0100100000000000
0100101111011110
0100100001000010
0111101001010010
0100100101001010
0000001001010010
0000000001000010
0000000101001010
0000000010000100
