P1
# MD380 address: 0x806d380
# MD380 checksum: 1182365903
12 12
010011111100
001000001000
000000010000
000001101100
110110000010
010011111100
010000010000
010000010000
011011111110
010100000000
100011111110
000000000000
