P1
# MD380 address: 0x807b258
# MD380 checksum: 468305680
16 16
0001000000100000
0001000000100000
0001000000100000
0001000000100000
1111110111111100
0001000100100100
0011000100100100
0011100100100100
0101010100100100
0101010111111100
1001000100100100
0001000100100100
0001000100100100
0001000100100100
0001000111111100
0001000100000100
