P1
# MD380 address: 0x806e8c8
# MD380 checksum: 943937923
12 12
000001000000
011111111100
010000000100
011111111100
010001010000
010001001000
011111111110
010001100000
010001010000
100010001000
101100000110
000000000000
