P1
# MD380 address: 0x80668b8
# MD380 checksum: -123939919
12 12
011110000100
000100010100
111111010100
001110010100
010101010100
100100001100
001001000000
001111111100
010001000000
111111111110
000001000000
000000000000
