P1
# MD380 address: 0x80694d8
# MD380 checksum: 1024531675
12 12
010001000100
001000101000
111101111110
000100010000
001000010000
011101111110
101000010000
001011111110
001000010000
001000010000
001000010000
000000000000
