P1
# MD380 address: 0x8069b28
# MD380 checksum: -1118875105
12 12
000000100000
001111111110
101001001000
011111111110
001000100000
011011111100
101000100000
001111111110
010000100000
010000100000
100000100000
000000000000
