P1
# MD380 address: 0x8074a00
# MD380 checksum: -1535459907
16 16
0000000000000000
0001111111111100
0001000000000100
0001000000000100
0001000000000100
0001111111111100
0001000000000000
0001001000000000
0001001000001100
0001001000110000
0001001111000000
0001001000000010
0010001000000010
0010001000000010
0100000111111110
1000000000000000
