P1
# MD380 address: 0x8076b88
# MD380 checksum: 21028898
16 16
0000000000100000
0111111000100000
0100001000100000
0111111001111110
0100001001000010
0111111010000100
0010000000010000
0111111100010000
1000100100010000
0100100100010000
0101010100101000
0100000100101000
0111110100101000
0000000101000100
0000101001000100
0000010010000010
