P1
# MD380 address: 0x807d770
# MD380 checksum: -269768922
16 16
0000000000000000
0111110111110000
0001000100010000
0001000110010000
0001000101010010
0001110100010010
1110001000001110
0100010000000000
0001111111110000
0001000000010000
0001111111110000
0000000100000000
0001000111111000
0001000100000000
0010100100000000
0100011111111110
