P1
# MD380 address: 0x8075a18
# MD380 checksum: 135290764
16 16
0001000000100000
0001000000100000
0001000001010000
0001000010001000
1111110100000100
0001001000000010
0001000111111100
0001010000000000
0001100000000000
0011000111111100
1101000100000100
0001000100000100
0001000100000100
0001000100000100
0101000111111100
0010000100000100
