P1
# MD380 address: 0x80752e8
# MD380 checksum: -261958559
16 16
0000100000000000
0111001111011110
0100001001010010
0100101001010010
0100101001010010
0100101111010010
0100101001010010
0100101001010010
0100101001010010
0101101111010010
0110101000010010
0100101010011010
0001001001010100
0001001010110000
0010001100010000
0100001000010000
