P1
# MD380 address: 0x807b578
# MD380 checksum: -1450409305
16 16
0001000100000000
0001000111111000
0001001000001000
0001011111111110
1111101010001000
0001001100100100
0011001111111110
0011101000000000
0101011011111100
0101001000000000
1001001011111100
0001001000000000
0001001011111100
0001010010000100
0001010011111100
0001100010000100
