P1
# MD380 address: 0x8075518
# MD380 checksum: 1911182084
16 16
0000000000000000
0011111111111000
0000001000001000
0001001000001000
0001001000001000
0010010000001000
0000100000001000
0001000001010000
0110000000100000
0000000100000000
0000100010001000
0100100010000100
0100100000010010
0100100000010010
1000011111110000
0000000000000000
