P1
# MD380 address: 0x806ddd8
# MD380 checksum: 1789454534
12 12
001000001110
111111110000
010100100000
011110111110
000100100100
111111100100
000101000100
111111111110
000101010000
001001001000
110001000110
000000000000
