P1
# MD380 address: 0x8068e28
# MD380 checksum: 2010421567
12 12
001000100000
001001111110
111110000000
001010010000
001001011100
001101110100
111011010100
001001011100
001001010010
001001000010
111001111110
000000000000
