P1
# MD380 address: 0x806a2a0
# MD380 checksum: -1533778706
12 12
111111000100
010100111110
111110000000
101010000000
101011111110
110110010000
100010010000
111110010100
100010100010
111110111110
100010000010
000000000000
