P1
# MD380 address: 0x8079340
# MD380 checksum: 2017415887
16 16
0000100000100000
1111111111111110
0000100000100000
0000001000000000
1111111111111110
0000000000000000
0001111111110000
0001000000010000
0001111111110000
0000000000000000
0111111111111100
0100000000000100
0100111111100100
0100100000100100
0100111111100100
0100000000001100
