P1
# MD380 address: 0x8066688
# MD380 checksum: 740470687
12 12
010000010000
010001111100
011101010100
100111111110
110000000000
010001111100
010001010100
010001010100
010101010100
011000101000
000111000110
000000000000
