P1
# MD380 address: 0x80757f0
# MD380 checksum: -1273872757
16 16
0001000010001000
0001000001010000
0010001111111110
0010000000100000
0100100111111100
1111100000100000
0001001111111110
0010000100100100
0100000010101000
1111101111111110
0100000000000000
0000000111111100
0001100100000100
1110000100000100
0100000111111100
0000000100000100
