P1
# MD380 address: 0x8068d18
# MD380 checksum: 1192794450
12 12
010011111110
010010000010
011111111110
100010000010
111110111010
010010101010
111110101010
010010111010
010110000010
011010000010
010010001110
000000000000
