P1
# MD380 address: 0x806a8d8
# MD380 checksum: -2021939248
12 12
011111111100
000001000000
111111111110
000001000000
001111111000
001001001000
001111111000
001001001000
011111111100
000001000000
111111111110
000000000000
