P1
# MD380 address: 0x8070668
# MD380 checksum: -306401873
12 12
010001111110
011101010010
100101111110
111111010010
101011111110
111111000010
101011111010
111111101010
000001111010
001101000010
110010001110
000000000000
