P1
# MD380 address: 0x80783f0
# MD380 checksum: 1038462496
16 16
0011111111111110
0010001001010000
0010010011111110
0010110110010000
0011011011111100
0010010010010000
0010010011111100
0010010010010000
0010010011111110
0010000000000000
0010011111111100
0010010001000100
0100010001000100
0100000010110000
1000001100001100
0001110000000010
