P1
# MD380 address: 0x80795a0
# MD380 checksum: -1918745794
16 16
0001000000000000
0001001111111110
0001001000010000
0001001000010000
1111111011111110
0001001000010000
0001001000010000
0001011111111110
0001101000000000
0011001000010000
1101001000010000
0001001011111110
0001001000010000
0001010000010000
0101010111111110
0010100000000000
