P1
# MD380 address: 0x806cc88
# MD380 checksum: 2087402625
12 12
001011111110
001010000010
001000100000
101111111110
101001010000
101010010000
001011111110
001000010000
001011111110
001000010000
001000010000
000000000000
