P1
# MD380 address: 0x807c138
# MD380 checksum: -989600500
16 16
0000100000000000
0111111101111000
0000100001001000
0011111001001000
0000000010000110
0011111001111000
0010101001001000
0011111000110000
0100000001001000
1111111111111110
0000100000000000
0001111111111000
0010100000001000
1100100000001000
0000111111111000
0000100000001000
