P1
# MD380 address: 0x807b188
# MD380 checksum: 719421495
16 16
0001000001000000
0001000001000000
0001000010000000
0001000011111100
1111110100000100
0001001000000100
0011000000000100
0011100100000100
0101010010000100
0101010001000100
1001000001000100
0001000000000100
0001000000000100
0001000000000100
0001000000101000
0001000000010000
