P1
# MD380 address: 0x806ffc0
# MD380 checksum: 271410889
12 12
001001111100
101010100100
011101111110
001000110010
111101010100
001010110000
011100010000
011011111110
101001011000
001010010100
001100010010
000000000000
