P1
# MD380 address: 0x8067408
# MD380 checksum: 449298364
12 12
010000001110
010011110000
011101010010
100101010100
110000001000
010000100000
010011111110
010001000100
010101111000
011000010100
010011100010
000000000000
