P1
# MD380 address: 0x8073ae8
# MD380 checksum: -1862224737
16 16
0000000010000000
0000000001000000
0111100001000000
0100111111111100
0100100000000000
0100100000000000
0100100111110000
0100100100010000
0100100100010000
0100100100010000
0111100100010000
0100100100010010
0000001000010010
0000001000010010
0000010000001110
0000100000000000
