P1
# MD380 address: 0x806c750
# MD380 checksum: 1670123395
12 12
001000001000
001000001000
001001111110
101010001000
101010001000
101010001000
101010111110
101010100010
101110100010
110010100010
000000111110
000000000000
