P1
# MD380 address: 0x8065770
# MD380 checksum: 383863848
12 12
001001111000
001000001000
010101111110
010100100000
110101111100
010101010000
010100010000
010111111110
010100101000
010001000100
010010000010
000000000000
