P1
# MD380 address: 0x8078c98
# MD380 checksum: 990516092
16 16
0000001000000000
0000000100000000
1111111111111110
0001000001001000
0010010011111110
0111100110010000
0001000011111100
0010001010010000
0111110011111100
0000100010010000
0011000011111110
1100000010000000
0000000100000000
0011111111111000
0000000100000000
1111111111111110
