P1
# MD380 address: 0x8063e80
# MD380 checksum: 2049546355
12 12
000100010000
111111010100
000100010100
111111111110
001000010000
111111010100
001000010100
011101010100
101010001010
001101010110
001000100010
000000000000
