P1
# MD380 address: 0x806e848
# MD380 checksum: 1648613558
12 12
001000010000
001011111110
001010000010
101111111110
101010000000
101011111110
001010101010
001011111110
010110101010
010010101010
100100000110
000000000000
