P1
# MD380 address: 0x807d138
# MD380 checksum: 484741743
16 16
0010000001000000
0010000000100000
0010001111111110
1111100000100000
1010100001001000
1010101011110010
1010100100100100
1010101001010010
1111100011111000
1010000000001000
0010000000100000
0010101111111110
0011100000100000
1110100000100000
0100000000100000
0000000000100000
