P1
# MD380 address: 0x8063af8
# MD380 checksum: 1169044981
12 12
000010000000
011111111000
010001001000
011111111000
010010001000
011111111000
000101000000
001001000000
111111111110
000001000000
000001000000
000000000000
