P1
# MD380 address: 0x806c648
# MD380 checksum: -1251964072
12 12
011111111110
010001000010
010001000010
011111111110
010010010010
010010010010
010110100010
010001110010
010010001010
010100000010
011111111110
000000000000
