P1
# MD380 address: 0x806adc0
# MD380 checksum: -273992365
12 12
011111110000
000100011100
001111110100
110100011100
000111110000
010100010100
011111111100
000010100000
111110111110
010010100010
100010100010
000000000000
