P1
# MD380 address: 0x8067718
# MD380 checksum: -572879333
12 12
010001000000
001001111100
000010000100
100011110100
010110010100
001010010100
001011110100
010010011100
110010000010
010010000010
010001111110
000000000000
