P1
# MD380 address: 0x8064f10
# MD380 checksum: -1980716334
12 12
010000011100
001011100100
000010101000
101001010000
011011111100
001000001000
010000010000
010111111110
110000010000
010000010000
010001110000
000000000000
