P1
# MD380 address: 0x807c438
# MD380 checksum: 641921909
16 16
0001000000000000
0001000000000000
0011110111111100
0010000100000100
0100000100000100
1011110100000100
0001000111111100
0001000100000100
1111110100000100
0001000100000100
0001000111111100
0001000100000100
0001010000000000
0001100000000000
0001001111111110
0000000000000000
