P1
# MD380 address: 0x8067e18
# MD380 checksum: -411493235
12 12
001000111110
101110001000
101000111110
111110101010
000000111110
101010001000
101010111110
110110101010
100010111110
101110100010
110010100110
000000000000
