P1
# MD380 address: 0x8068ae8
# MD380 checksum: -1999776704
12 12
011100010000
010101010100
010111111110
011110000010
010101111100
010101000100
011101111100
010100010000
010101111100
100100010000
101111111110
000000000000
