P1
# MD380 address: 0x8076fb0
# MD380 checksum: 1310179406
16 16
0010000000000100
0010000000001110
0010001110111000
1111100010001000
1010100010001000
1010100100101000
1010100100101110
1010101110101000
1111100010101000
1010001010101000
0010001010101000
0010100100111110
0011100100000000
1110101010000000
0100010001111110
0000100000000000
