P1
# MD380 address: 0x8068380
# MD380 checksum: -1857258368
12 12
100000100000
010000100000
000111111110
100100100010
010000100000
000000110000
010001010000
010001010000
110010010010
010010010010
010100011110
000000000000
