P1
# MD380 address: 0x806f190
# MD380 checksum: -1059538243
12 12
010010011110
010001000010
011010010010
100011111110
111010010010
010011111110
111011010110
010011111110
010010110010
011011011010
010010000110
000000000000
