P1
# MD380 address: 0x8073040
# MD380 checksum: -563788940
16 16
0000000100000000
0000000100000000
0000000100000000
0011111111111000
0000000100000000
0000000100000000
0000000100000000
1111111111111110
0000000100000000
0000000100000000
0010000100001000
0010000100001000
0010000100001000
0010000100001000
0011111111111000
0000000000001000
