P1
# MD380 address: 0x8076690
# MD380 checksum: -1246484730
16 16
0000000100000000
0000000100000000
0111100100000000
0100100111111100
0100101010100100
0100110010100100
0100100010100100
0100100100100100
0100100100100100
0100101001000100
0111110001000100
0100100010000100
0000000100000100
0000001000000100
0000010000101000
0000000000010000
