P1
# MD380 address: 0x80719b8
# MD380 checksum: 210364023
16 16
0001000000010000
0001000001111000
0001001111000000
0001000001000000
1111100001000000
0001011111111100
0001001001001000
0001101001001000
0011011111111110
1101001001001000
0001001001001000
0001011111111100
0001000001000000
0001000001000000
0101011111111100
0010000000000000
