P1
# MD380 address: 0x80741b0
# MD380 checksum: -1071457210
16 16
0001000001000000
0001001110111110
0001001000010010
0001001010010010
1111111001010010
0001001010101010
0011001100100100
0011100001000000
0101011111111110
0101001000100010
1001001000100010
0001001111111110
0001001000100010
0001001000100010
0001001111111110
0001001000000010
