P1
# MD380 address: 0x806dc00
# MD380 checksum: -282405671
12 12
001000010000
001000010000
111101010100
001001010010
011001010010
011101010000
101010010010
101000010100
001000001000
001000110000
001011000000
000000000000
