P1
# MD380 address: 0x806ab10
# MD380 checksum: 1432125301
12 12
000011111110
111100100000
010001100010
010010010100
111100111000
010001001000
010011011000
010000101100
011101001010
100010001000
000101110000
000000000000
