P1
# MD380 address: 0x80638f0
# MD380 checksum: -1691076791
12 12
000000000100
011111111110
010001000100
010001000100
010001000100
011111111100
010000000000
010000000000
010000000010
010000000010
011111111110
000000000000
