P1
# MD380 address: 0x807a5f8
# MD380 checksum: -1923615775
16 16
0000000010000000
0010000001000000
0001011111111100
0001010000000100
1000100000001000
0100001111110000
0100000000000000
0001000000000000
0001011111111100
0010000100100000
1110000100100000
0010000100100000
0010001000100100
0010001000100100
0010010000011100
0000100000000000
