P1
# MD380 address: 0x806f248
# MD380 checksum: 798127917
12 12
000100010000
111000101000
001001000100
111110010010
001001111100
011000001000
011100010000
101001000100
101011010010
001101010100
001001111100
000000000000
