P1
# MD380 address: 0x806b308
# MD380 checksum: -36102832
12 12
010000010000
001000010000
001011111100
000000010000
110000010000
010111111110
010000010000
010011111100
010000010000
011000010000
010111111110
000000000000
