P1
# MD380 address: 0x8064aa8
# MD380 checksum: 1946334954
12 12
001011011100
010010010100
101010010100
111011100110
010010000000
100011011110
111010010100
000010010100
001011101000
110110010100
000010100010
000000000000
