P1
# MD380 address: 0x806a3a0
# MD380 checksum: 1464700867
12 12
000010000000
001111111100
001000000100
001111111100
001000000100
001111111100
000010000000
000011111110
111110000000
000010000010
000011111110
000000000000
