P1
# MD380 address: 0x8075080
# MD380 checksum: 1570383032
16 16
0000100000000000
0000100000000000
0111111101111100
0000100000100100
0011111000100100
0000100000100100
0111111101000100
0000100001010100
0000100110001000
0000000100000000
1111111111111110
0000001010000000
0000010001000000
0000100000100000
0011000000011000
1100000000000110
