P1
# MD380 address: 0x8066098
# MD380 checksum: -1915285053
12 12
001001111110
001001000010
001001000010
101101111110
101001001000
101001000100
001010010010
001000001000
010100000000
010010110000
100000001100
000000000000
