P1
# MD380 address: 0x807ab78
# MD380 checksum: -275962825
16 16
0001000100000000
0001000010111100
0001000000000100
0001000100100100
1111110100100100
0010010100100100
0010010111111100
0010010100100100
0010010101110100
0100100110101100
0010100100100100
0001000100100100
0010100100100100
0100010100000100
1000010100010100
0000000100001000
