P1
# MD380 address: 0x8064760
# MD380 checksum: 849720701
12 12
111101110100
100100101000
100110101010
111101111100
001010000010
101001111100
101101000100
101001000100
101101111100
111000101000
100111111110
000000000000
