P1
# MD380 address: 0x8078430
# MD380 checksum: 842663119
16 16
0000000000000100
0000000100000100
0000000100000100
0010000100100100
0001000100100100
0000101000100100
0000101000100100
0000010000100100
0000010000100100
0000101000100100
0000101000100100
0001000100100100
0010000100000100
0100000000000100
1000000000010100
0000000000001000
