P1
# MD380 address: 0x806e1c0
# MD380 checksum: -1593140610
12 12
001111111100
001000000100
001111111100
001000000100
001111111100
000000000000
011111111110
010001000000
010001100000
100010011000
101100000110
000000000000
