P1
# MD380 address: 0x8063480
# MD380 checksum: -50799286
6 12
000000
000010
000100
000100
000100
001000
001000
010000
010000
010000
100000
000000
