P1
# MD380 address: 0x807c7e8
# MD380 checksum: 1483570606
16 16
0000100000000100
0001110000011110
1111000111100000
0001000000000010
0001000100100010
1111110010010100
0001000000000000
0011100111111100
0011010000001000
0101000000010000
0101001111111110
1001000000010000
0001000000010000
0001000000010000
0001000001010000
0001000000100000
