P1
# MD380 address: 0x8070198
# MD380 checksum: 789044877
12 12
111110111100
010100010000
111111111110
101010010000
101011111110
110111011010
100011111110
111110010000
100011111110
111110000000
100010101010
000000000000
