P1
# MD380 address: 0x806f180
# MD380 checksum: 1520044146
12 12
010000111000
010001001000
011011111110
100001010010
111001111110
010001010010
111011111110
010001000100
010101111100
011001000100
010001111100
000000000000
