P1
# MD380 address: 0x8075038
# MD380 checksum: -9374127
16 16
0010000100000000
0001000100000000
0001000111111110
0000001000000000
1111110010001000
0010000111111100
0010000010001000
0011110011111000
0010010010001000
0010010011111000
0010010010001000
0010010010001000
0010011111111110
0100010001010000
0101010010001000
1000100100000100
