P1
# MD380 address: 0x8068d58
# MD380 checksum: -1837610313
12 12
001000100000
001001010000
001010001000
010101110110
011000000000
110111010100
010101010100
010111010100
010101010100
010111010100
010101001100
000000000000
