P1
# MD380 address: 0x8072690
# MD380 checksum: 924090050
16 16
0000000100000000
0010000100001000
0010000100001000
0011111111111000
0000000000000000
0011111111111000
0010000000001000
0010000001001000
0010010001001000
0010001010001000
0010000100001000
0010001010001000
0010010001001000
0010100000001000
0010000000101000
0010000000010000
