P1
# MD380 address: 0x8076e50
# MD380 checksum: 335295269
16 16
0010100001010000
0010100001010000
1111111001010000
0010100010010010
0011100010010010
0001000110010100
0111111010011000
0101010010010000
0101010010110000
0111110011010000
0001000010010000
1111111010010000
0001000010010010
0001000010010010
0001000010001110
0001000010000000
