P1
# MD380 address: 0x8073cd0
# MD380 checksum: 709451784
16 16
0000100000100000
0000100000100000
1111111111111110
0000100100100000
0000000100000000
0011111111111000
0000000100000000
0001000100010000
0000100100100000
0111111111111100
0000001110000000
0000010101000000
0000100100100000
0011000100011000
1100000100000110
0000000100000000
