P1
# MD380 address: 0x806d350
# MD380 checksum: -258885416
12 12
010001000000
001001111100
000010010000
000100010000
111000010000
001111111110
001000010000
001000010000
011000010000
100100010000
000011111110
000000000000
