P1
# MD380 address: 0x8073458
# MD380 checksum: -1337327149
16 16
0000000000001000
1111100000111100
0000100111100000
0100100000100000
0100100000100000
0100101111111110
0100100001010000
0111110010001000
0000010100000100
0000011010001010
0001110010001000
1110010010001000
0100010010001000
0000010100001000
0010100100001000
0001001000001000
