P1
# MD380 address: 0x806e3a8
# MD380 checksum: 449745944
12 12
001000010000
101011111110
101000000000
111101111100
101001000100
101011111110
001110000010
111010111010
001010101010
001010111010
001010000110
000000000000
