P1
# MD380 address: 0x8071d08
# MD380 checksum: 46147182
16 16
0000100000000000
0000101111111000
0001001000001000
0010001111111000
0100101000001000
0000101111111000
0001000000000000
0011001111111100
0101000000010000
1001011111111110
0001000000010000
0001001000010000
0001000100010000
0001000000010000
0001000001010000
0001000000100000
