P1
# MD380 address: 0x806e7f8
# MD380 checksum: 1167054293
12 12
001000010000
001000110000
001101001000
101010010100
101101111010
101000001000
001000010000
001001111100
010101000100
010011000100
100001111100
000000000000
