P1
# MD380 address: 0x80643a8
# MD380 checksum: -1336950237
12 12
001000111100
011110100100
010010100100
011010100100
010010100110
111111000000
010010111110
011010100010
010010100010
100010100010
100110111110
000000000000
