P1
# MD380 address: 0x8073268
# MD380 checksum: 625203141
16 16
0010000001000000
0010000000100000
0010001111111110
0010001000000010
1111100000000000
0100100111111100
0100100001000000
0100100010100010
0100101100110100
1001000001011000
0101000010010100
0010001100110100
0011000001010010
0100100010010000
0100101101010000
1000000000100000
