P1
# MD380 address: 0x806dac8
# MD380 checksum: -1987656853
12 12
000000010000
111101111110
010000101000
010001000100
111111111110
010000000100
010001110100
010001010100
011101110100
110000000100
000000011100
000000000000
