P1
# MD380 address: 0x8065f40
# MD380 checksum: 1763321718
12 12
001001111100
001001000100
111101111100
001001000100
001101111100
011001000000
101011111110
001110010010
001010101010
001011111010
111000001100
000000000000
