P1
# MD380 address: 0x80698d0
# MD380 checksum: 705844123
12 12
011111111000
000001000000
111111111110
010101010100
010011100100
011111111100
000001000000
011111111100
000001000000
111111111110
010010010010
000000000000
