P1
# MD380 address: 0x8064e88
# MD380 checksum: -901908740
12 12
000001000000
011111111100
000001000000
001111111000
000010000000
111111111110
001001001000
110111110110
000001000000
001111111100
000001000000
000000000000
