P1
# MD380 address: 0x8073818
# MD380 checksum: 1699416748
16 16
0010000000000000
0010000111111110
0011110100000000
0101000100000000
1001000100000000
0001000111111100
0001000100000100
1111111100000100
0001000100000100
0001000100000100
0001000111111100
0010100100000000
0010010100000000
0100010100000000
0100000111111110
1000000000000000
