P1
# MD380 address: 0x807d190
# MD380 checksum: 103392428
16 16
0000111111100000
0001000000100000
0001111111000000
0000000001000000
1111111111111110
0000110000010000
0111001100100000
0000110111000000
0111001010110000
0000110010001110
1111001100100000
0111110011111000
0101010010101000
0111110011111000
0001001000100100
1111111011111100
