P1
# MD380 address: 0x8071670
# MD380 checksum: -335313822
16 16
0000100000000000
0000100111111100
0000100001000100
0111111001000100
0000100001000100
0000100010010100
1111111100001000
0000100011111100
0010100010000100
0010100010000100
0010111010000100
0010100011111100
0010100000000000
0101100000000000
0100111111111110
1000000000000000
