P1
# MD380 address: 0x807b340
# MD380 checksum: -1648791587
16 16
0000100000100000
0000100000100000
0111111011111100
0000100000100000
0001110001110000
0010101010101000
1100100000100110
0000000000000000
0000111111100000
0000100000100000
0000100000100000
0000101000100000
0000100100100000
0001000100100010
0010000000100010
0100000000011110
