P1
# MD380 address: 0x8067850
# MD380 checksum: -584516393
12 12
000000100000
001111111110
101000000000
011111111110
001001101000
011010100100
101100100010
001011111100
010010000100
010010000100
100011111100
000000000000
