P1
# MD380 address: 0x806fbd8
# MD380 checksum: 364602837
12 12
000111110000
000100010000
111111111110
001011001000
110101110000
001010101110
111011100000
001000001000
111110111110
101010101010
111111111110
000000000000
