P1
# MD380 address: 0x807bc48
# MD380 checksum: -314973574
16 16
0000000010001000
0111100010001000
0100111111001000
0100100010111110
0100100010001000
0111101111001000
0100100000011100
0100101111010100
0100101001010100
0111101001010100
0100101111010100
0100101001001000
0100100110001000
0100100011010100
0100111100010100
1001101000100010
