P1
# MD380 address: 0x807cba0
# MD380 checksum: -214857694
16 16
0000001000000000
0000000100000000
0111111111111110
0100100000100010
1001000000010100
0010111111111000
0000000000010000
0000000000010000
0001111111110000
0001000000000000
0010000000000000
0011111111111000
0000000000001000
0000000000001000
0000000001010000
0000000000100000
