P1
# MD380 address: 0x806df10
# MD380 checksum: -1989525630
12 12
010000010000
010010010010
111010111010
010000010100
010111111110
111010010000
110010111110
010010100010
010011111110
010010100010
010000111110
000000000000
