P1
# MD380 address: 0x8077240
# MD380 checksum: 2023090412
16 16
0000000001000000
0010001111111000
0001001001001000
0001001111111000
0000000001000000
0000111111111110
1111000000000000
0001001111111000
0001001000001000
0001001001001000
0001001001001000
0001000010100000
0001000100010000
0010101000001000
0100011111111110
0000000000000000
