P1
# MD380 address: 0x8070158
# MD380 checksum: 1713071148
12 12
111110010000
010101111110
111110100000
101011111100
101010100100
110110111100
100010000000
111111111110
100010101010
111110101010
100011111110
000000000000
