P1
# MD380 address: 0x806c1e0
# MD380 checksum: 426127081
12 12
000011111110
111010000000
101010000000
101010111100
101010100100
101010100100
111010100100
101010101100
000010100010
000100100010
001000111110
000000000000
