P1
# MD380 address: 0x806ce78
# MD380 checksum: -513728348
12 12
100111111110
010010000100
000010100100
100010010100
011001010100
001001001000
010000101000
110000010000
010000110000
010001001000
010110000110
000000000000
