P1
# MD380 address: 0x807b300
# MD380 checksum: 1534776163
16 16
0001000010010000
0001000010010100
0001000100010100
0001000100011000
1111101100010000
0001010100110010
0011000101010010
0011100100001110
0101010100100000
0101000000100000
1001001111111110
0001000000100000
0001000000100000
0001000000100000
0001000000100000
0001000000100000
