P1
# MD380 address: 0x806e1b0
# MD380 checksum: 1439233377
12 12
001111111000
001000001000
001111111000
001000001000
001111111000
000000000000
011111111100
000000000000
111111111110
000100001000
011111111100
000000000000
