P1
# MD380 address: 0x806bff0
# MD380 checksum: -1802904127
12 12
001000010000
001011111110
111100101000
001001000100
001011111110
001100000000
111011111110
001000010000
001001010100
001001010010
111010110010
000000000000
