P1
# MD380 address: 0x8073be8
# MD380 checksum: 1181014351
16 16
0000000000000000
0000000111111110
0111110100000000
0100010100000000
0100010111111110
0111110100010000
0100010100010000
0100010101111100
0111110100010000
0100010100010000
0100010100010000
0100010111111110
0111110100000000
0100010100000000
0000000111111110
0000000000000000
