P1
# MD380 address: 0x8063fe8
# MD380 checksum: -1579752795
12 12
001000001110
001001110000
111101000000
001001111110
001101001000
011001001000
101001011000
001001001100
001010001010
001010001000
111100001000
000000000000
