P1
# MD380 address: 0x8067548
# MD380 checksum: -1229468597
12 12
000001000000
001001000000
001111111100
010001000000
010001000000
000001000000
111111111110
000001000000
000001000000
000001000000
000001000000
000000000000
