P1
# MD380 address: 0x8076580
# MD380 checksum: 370440617
16 16
0000000010000000
0100000010000000
0010111111111100
0010000010000000
0000000010000000
0000011111111000
1110000010000000
0010000010000000
0010111111111100
0010000010000100
0010000010000100
0010000010010100
0010000010001000
0101000010000000
1000111111111110
0000000000000000
