P1
# MD380 address: 0x8068190
# MD380 checksum: -1504267628
12 12
001000010000
001000010000
010101010100
100101010010
111010010010
010010010000
111100010100
000000000100
001100001000
110000110000
000111000000
000000000000
