P1
# MD380 address: 0x807b970
# MD380 checksum: 838277443
16 16
0010000001000000
0001001001001000
0100010001000100
0010000000010100
0000100001100000
0111001110000000
0010000000000000
0000000011110000
0011111100000000
0000000100000000
0011111111111000
0000000100000000
0111111111111100
0000000100000000
0000010100000000
0000001000000000
