P1
# MD380 address: 0x8077558
# MD380 checksum: -1995156577
16 16
0000100000000000
0000100001111100
0000100001000100
0111111101001000
0100100101001000
0100100101010000
0100100101001000
0100100101001000
0111111101000100
0100100101000100
0100100101000100
0100100101101000
0100100101010000
0111111101000000
0100000101000000
0000000001000000
