P1
# MD380 address: 0x8073888
# MD380 checksum: 1671264211
16 16
0001000000000000
0001000111111110
0001000100000000
0001000100000000
0101010100000000
0101100111111100
0101000100000100
1001000100000100
0001000100000100
0001000100000100
0001000111111100
0010100100000000
0010010100000000
0100010100000000
0100000111111110
1000000000000000
