P1
# MD380 address: 0x807bae8
# MD380 checksum: 1552876990
16 16
0000000000100000
0011110000100000
0010010000100000
0010010111111100
0010010100100100
0011110100100100
0010010100100100
0010010111111100
0010010100100100
0011110100100100
0010010100100100
0010010111111100
0010010100100100
0100010000100000
0101010000100000
1000100000100000
