P1
# MD380 address: 0x807aff0
# MD380 checksum: -74855928
16 16
0000000010010000
0000000010001000
1111110010001000
0001000010000000
0001001111111110
0001000010100000
0001000010100000
0111110010100100
0001000010100100
0001000010101000
0001000100101000
0001000100110010
0001110100100010
1110001001100010
0100001010011110
0000010000000000
