P1
# MD380 address: 0x8075728
# MD380 checksum: 1004124317
16 16
0000000000100000
0000000000100000
1111110000100000
0001000010101000
0001000010100100
0010000010100010
0011110100100010
0110010100100000
0110011000100100
1010010000100100
0010010000101000
0010010000001000
0011110000010000
0010010000100000
0010000011000000
0000001100000000
