P1
# MD380 address: 0x8076d88
# MD380 checksum: -173833103
16 16
0000000001000000
0000000001111100
0111100001000000
0100101111111110
0100101001000010
0100101001111000
0100101111000100
0100101000111100
0100101000000000
0100101001010000
0111101001010100
0100101101010100
0000010011011000
0000010001010000
0000100111111110
0000000000000000
