P1
# MD380 address: 0x807aae0
# MD380 checksum: 1092638964
16 16
0001000000100000
0001000000100000
0001000000101110
0001000111110000
1111110100100000
0010010100100000
0010010100100000
0010010111111110
0010010000100010
0100100001100010
0010100010100010
0001000100101010
0010111000100100
0100010000100000
1000010000100000
0000000000100000
