P1
# MD380 address: 0x806dc90
# MD380 checksum: 831980309
12 12
001001111110
001001010010
111111010010
001001111110
011001010010
011101010010
101001111110
101000010000
001000010000
001000010000
001000010000
000000000000
