P1
# MD380 address: 0x807a6e0
# MD380 checksum: 1083373356
16 16
0000000001000000
0010000001000000
0001011111111100
0001000001000000
1000001111111000
0100000010000000
0100011111111100
0001000100010000
0001001001101000
0010010111000110
1110000001000000
0010001111111000
0010000011100000
0010000101011000
0010011001000100
0000000001000000
