P1
# MD380 address: 0x8072428
# MD380 checksum: -1688404683
16 16
0000000000000000
0100011111110000
0010000000010000
0010000000010000
0000001000010000
0000101000010000
0000101000010000
0001001111111100
0001000000000100
1110000000000100
0010000000000100
0010011111110100
0010000000000100
0010000000000100
0010000000101000
0000000000010000
