P1
# MD380 address: 0x80786a0
# MD380 checksum: 1862407493
16 16
0000101000100000
0000101000100100
0000101110101000
0001001000110000
0001001010100010
0011001100100010
0011001001011110
0101000010000000
1001001111111100
0001001000000100
0001001000000100
0001001111111100
0001001000000100
0001001000000100
0001001111111100
0001001000000100
