P1
# MD380 address: 0x807c2f0
# MD380 checksum: -1483795350
16 16
0000000000000000
0111111111111100
0100010001000100
0100010001000100
0111111111111100
0000000100000000
0000000100000000
1111111111111110
0000000100000000
0000000100000000
0001111111110000
0001000000010000
0001000000010000
0001000000010000
0001111111110000
0001000000010000
