P1
# MD380 address: 0x8065c18
# MD380 checksum: 1391135643
12 12
001000010000
001000010000
111111111110
010010010000
010010010000
010101111100
100101000100
010100101000
001100010000
010010101000
100111000110
000000000000
