P1
# MD380 address: 0x806f4e0
# MD380 checksum: -669622822
12 12
000000100000
001111111110
101011111000
011000100000
001111111110
011010101000
101101000100
001111111110
010010001000
010001110000
101111001100
000000000000
