P1
# MD380 address: 0x8078210
# MD380 checksum: 535304104
16 16
0001000000100000
0001000000100000
0011110000100000
0010000000100000
0100000000111110
1011110000100000
0001000000100000
0001000000100000
1111110111111100
0001000100000100
0001000100000100
0001000100000100
0001010100000100
0001100100000100
0001000111111100
0000000100000100
