P1
# MD380 address: 0x8064e10
# MD380 checksum: 1131516045
12 12
010000010000
010011111110
011001001000
110111111110
110001001000
110011111100
010010000100
010010100100
010010100100
010001011000
010110000110
000000000000
