P1
# MD380 address: 0x8066008
# MD380 checksum: -891029208
12 12
100000001010
010000001010
010111111110
000000001000
110010101010
010010101010
010111111010
010010100100
011010100100
010100101010
001000010010
000000000000
