P1
# MD380 address: 0x807b0b8
# MD380 checksum: 2132920568
16 16
0000000000000000
0000001111111100
1111101000000100
0010001000000100
0010001111111100
0010001000100000
0010001000100000
1111101111111110
0010001000100000
0010001000100000
0010001011111100
0011101010000100
1110001010000100
0100010010000100
0000010011111100
0000100010000100
