P1
# MD380 address: 0x807db68
# MD380 checksum: -698726106
16 16
0010000001000000
0010000000100000
0111110111111110
0100010010001000
1000100001010000
0111110000100000
0101010001010000
0101010010001000
0111110100000110
0101010010001000
0101010010001000
0111110010001000
0000000010001000
0001110100001000
1110000100001000
0100001000001000
