P1
# MD380 address: 0x80705b0
# MD380 checksum: -1825109263
12 12
010000010000
011101111110
100100101000
111110010000
101010101000
111111000110
101010100100
111110100100
000000100100
001101000100
110010000100
000000000000
