P1
# MD380 address: 0x807c230
# MD380 checksum: 1013213089
16 16
0000000010100000
0000000010010000
0111100010000000
0100100111111110
0100100100010000
0111101100010000
0100110111111100
0100100100010000
0111100100010000
0100100111111100
0100100100010000
0100100100010000
0111100100010000
0100100111111110
0000000100000000
0000000100000000
