P1
# MD380 address: 0x807dc20
# MD380 checksum: -1933614526
16 16
0010000000000000
0010000111111100
0111110100100100
0100010100100100
1000100101110100
0111110100100100
0101010111111100
0101010100000100
0111110101110100
0101010101010100
0101010101010100
0111110101110100
0000000100000100
0001111000000100
1110001000010100
0100010000001000
