P1
# MD380 address: 0x806ebe0
# MD380 checksum: 2100488282
12 12
111101111110
100100010000
100100010000
111100010000
100111111110
100100010000
111100010000
100100010000
100100010000
111100010000
000001110000
000000000000
