P1
# MD380 address: 0x80792b8
# MD380 checksum: -1577318817
16 16
0000100000100000
1111111111111110
0000100000100000
0000000100000000
0001111111110000
0001000100010000
0001111111110000
0000000100000000
1111111111111110
0000000000000000
0001111111110000
0001000000010000
0001000100010000
0000001011000000
0000110000110000
0111000000001000
