P1
# MD380 address: 0x80720e0
# MD380 checksum: -93171145
16 16
0000001000000000
0000001000000000
0000011111110000
0000100000100000
0011100001000000
0000010010000000
0000001101000000
0000110010000000
0111000111111000
0000001000001000
0000110000010000
0011001000100000
0000000101000000
0000000110000000
0000111000000000
0111000000000000
