P1
# MD380 address: 0x8075940
# MD380 checksum: -1492558854
16 16
0000001000000000
0000000100000000
0111111111111110
0100000100000010
1000000100000100
0011111111111000
0010000100001000
0010000100001000
0011111111111000
0010000100001000
0010000100001000
0011111111111000
0010000100001000
0000000100000000
0000000100000000
0000000100000000
