P1
# MD380 address: 0x807aa00
# MD380 checksum: -135230906
16 16
0000010000000000
0100111100111100
0010100100010100
0011001000010100
0000111110010100
0000101010101000
1110101010101000
0010111110111100
0010101011001000
0010101010001000
0010111110111110
0010101010001000
0010101010001000
0011000110001000
0101000000001000
1000111111111110
