P1
# MD380 address: 0x8074b28
# MD380 checksum: 1038921918
16 16
0000000001000000
0010000001000000
0001000001000000
0001011111111100
1000010010000100
0100100010001000
0100000101000000
0001000101000100
0001001101001000
0010010100110000
1110100100100000
0010000100010000
0010000100001000
0010000101000100
0010000110000010
0000000100000000
