P1
# MD380 address: 0x807baf0
# MD380 checksum: 417490220
16 16
0000000100000000
0000000100000000
0011111111111000
0010000100001000
0011111111111000
0010000100001000
0011111111111000
0000000000000000
0001111111110000
0001000000010000
0001111111110000
0001000000010000
0001111111110000
0001000000010000
0001000001010000
0001000000100000
