P1
# MD380 address: 0x806cc78
# MD380 checksum: -723616228
12 12
001001000000
001001111110
001010000010
101111110010
101010010010
101010010010
001011110010
001010010010
001011110010
001000000010
001000011100
000000000000
