P1
# MD380 address: 0x8079840
# MD380 checksum: 382672709
16 16
0000000000010000
0000001000010000
0111100100010000
0100100100010000
0100100011111110
0100100000010000
0100101100010000
0100100100101000
0100100100100100
0100100101000100
0111100101000010
0100100110000010
0000000100000000
0000001010000000
0000010001111110
0000000000000000
