P1
# MD380 address: 0x8070718
# MD380 checksum: 1631935030
12 12
010011111110
011010000000
101011010100
111111110110
101010101010
111110100100
101010101100
111111111100
000010100100
011010101010
100101010010
000000000000
