P1
# MD380 address: 0x807c1c0
# MD380 checksum: -473998054
16 16
0000000001000000
0000000001000000
0111100001000000
0100101111111100
0100101001000100
0111110001001000
0100100001000000
0100100001000000
0111100010100000
0100100010100000
0100100010100000
0100100100100000
0111100100100010
0100101000100010
0000010000011110
0000100000000000
