P1
# MD380 address: 0x806df78
# MD380 checksum: -1082286293
12 12
010111111110
010100010100
111110100100
010111111110
011101001010
110101010100
110101010100
010111110100
010101000100
010101001010
011010110010
000000000000
