P1
# MD380 address: 0x80659c0
# MD380 checksum: -1404528606
12 12
000001000000
111001111110
101010000000
101101111100
111001000100
101001010100
101111111110
101010010100
111011111110
000000000100
000000011000
000000000000
