P1
# MD380 address: 0x8066138
# MD380 checksum: 91280171
12 12
010000010000
010011111110
111001001000
010111111110
010010000100
010011111100
010010000100
011011111100
110000101000
000001001010
001110001110
000000000000
