P1
# MD380 address: 0x8079668
# MD380 checksum: 215610735
16 16
0010000000000000
0010001111111100
0010001000000100
0010001000000100
1111101111111100
0010001001001000
0010001001001000
0010101011111100
0011001001001000
1110001001001000
0010001111111110
0010001010100100
0010001010101000
0010010010010000
1010010011001000
0100100010000110
