P1
# MD380 address: 0x806c898
# MD380 checksum: 96184094
12 12
010001000100
011111111100
000100000000
111110111110
000100010000
011110111110
010010100010
011110101010
010010101010
111111010100
010010100010
000000000000
