P1
# MD380 address: 0x807df58
# MD380 checksum: -2058450288
16 16
0001000000000000
0011111000000000
0010001001111100
0011111000010000
0010001000010000
0011111000010000
0000000000010000
0111111100010000
0100100111111110
0111111100010000
0100100100010000
0111111100010000
0000000000010000
1111111110010000
0010001000010000
0100001000010000
