P1
# MD380 address: 0x80717d0
# MD380 checksum: -1354134948
16 16
0000000001000000
0010000001000000
0001001001000000
0001001001011000
1000001001101000
0100001011001000
0101001101001000
0001111001001000
0001001001001000
0010001001001000
1110001001011000
0010001001000010
0010001000000010
0010001000000010
0010000111111110
0000000000000000
