P1
# MD380 address: 0x806d8b0
# MD380 checksum: 1730602844
12 12
001000001100
001011110000
010000010000
100111111110
111001010100
010011111110
101101010100
110001010100
001111111110
110000010000
000011111110
000000000000
