P1
# MD380 address: 0x806beb8
# MD380 checksum: -1492469524
12 12
000100010000
111111111110
000101010000
011111111100
000100001000
000111111000
111111111110
100010010010
001111111000
000001000000
111111111110
000000000000
