P1
# MD380 address: 0x8071530
# MD380 checksum: 1998976273
16 16
0000000000000100
0010011111000100
0001010001000100
0001010001010100
1000010101010100
0100010101010100
0100010101010100
0001010101010100
0001010101010100
0010010101010100
1110010101010100
0010000100000100
0010001010000100
0010001001000100
0010010000010100
0000100000001000
