P1
# MD380 address: 0x80752e0
# MD380 checksum: -1016791963
16 16
0001000000000000
0001000011111110
0001010000010000
0010010000100000
0010010001111100
0110010001000100
0110011101010100
1010010001010100
0010010001010100
0010010001010100
0010010101010100
0010011001010100
0010010000100000
0010000000101000
0010000001000100
0010000010000010
