P1
# MD380 address: 0x806b9f8
# MD380 checksum: -637761712
12 12
000100010000
111111111110
000101010000
001111111100
001001000100
001111111100
001001000100
111111111110
001000000100
001000000100
001000011100
000000000000
